<svg xmlns="http://www.w3.org/2000/svg"  viewBox="0 0 512 512" width="128px" height="128px"><path fill="#d4e1f4" d="M47,76.42A29.418,29.418,0,0,1,76.39,47h-30A29.418,29.418,0,0,0,17,76.42V379.55A29.443,29.443,0,0,0,46.39,409h30A29.443,29.443,0,0,1,47,379.55V76.42Z"/><path fill="#0635c9" d="M381.264,41h-22a30,30,0,0,0-59.884,0h-171.1a30,30,0,0,0-59.884,0h-22A35.457,35.457,0,0,0,11,76.416V379.552A35.485,35.485,0,0,0,46.391,415H302V403H46.391A23.471,23.471,0,0,1,23,379.552V124H405V301h12V76.416C417,56.909,400.778,41,381.264,41ZM311,42.983a18,18,0,1,1,36,0V69H311Zm-231,0a18,18,0,1,1,36,0V69H80ZM23,112V76.416A23.444,23.444,0,0,1,46.391,53H68V75.1A6.2,6.2,0,0,0,74.321,81h48.024A5.629,5.629,0,0,0,128,75.1V53H299V75.1a6.187,6.187,0,0,0,6.31,5.9h48.023A5.638,5.638,0,0,0,359,75.1V53h22.264C394.161,53,405,63.526,405,76.416V112Z"/><path fill="#0635c9" d="M147.264,153.972A17.828,17.828,0,1,0,165.1,171.8,17.85,17.85,0,0,0,147.264,153.972Zm0,23.655A5.828,5.828,0,1,1,153.1,171.8,5.837,5.837,0,0,1,147.264,177.627Z"/><path fill="#0635c9" d="M213.827,153.972A17.828,17.828,0,1,0,231.661,171.8,17.85,17.85,0,0,0,213.827,153.972Zm0,23.655a5.828,5.828,0,1,1,5.834-5.828A5.837,5.837,0,0,1,213.827,177.627Z"/><path fill="#0635c9" d="M280.391,153.972A17.828,17.828,0,1,0,298.224,171.8,17.85,17.85,0,0,0,280.391,153.972Zm0,23.655a5.828,5.828,0,1,1,5.833-5.828A5.837,5.837,0,0,1,280.391,177.627Z"/><path fill="#0635c9" d="M346.954,153.972A17.828,17.828,0,1,0,364.787,171.8,17.85,17.85,0,0,0,346.954,153.972Zm0,23.655a5.828,5.828,0,1,1,5.833-5.828A5.836,5.836,0,0,1,346.954,177.627Z"/><path fill="#0635c9" d="M80.7,209.413A17.828,17.828,0,1,0,98.534,227.24,17.85,17.85,0,0,0,80.7,209.413Zm0,23.655a5.828,5.828,0,1,1,5.833-5.828A5.837,5.837,0,0,1,80.7,233.068Z"/><path fill="#0635c9" d="M147.264,209.413A17.828,17.828,0,1,0,165.1,227.24,17.85,17.85,0,0,0,147.264,209.413Zm0,23.655a5.828,5.828,0,1,1,5.833-5.828A5.837,5.837,0,0,1,147.264,233.068Z"/><path fill="#0635c9" d="M213.827,209.413a17.828,17.828,0,1,0,17.834,17.827A17.85,17.85,0,0,0,213.827,209.413Zm0,23.655a5.828,5.828,0,1,1,5.834-5.828A5.837,5.837,0,0,1,213.827,233.068Z"/><path fill="#0635c9" d="M280.391,209.413a17.828,17.828,0,1,0,17.833,17.827A17.85,17.85,0,0,0,280.391,209.413Zm0,23.655a5.828,5.828,0,1,1,5.833-5.828A5.837,5.837,0,0,1,280.391,233.068Z"/><path fill="#0635c9" d="M346.954,209.413a17.828,17.828,0,1,0,17.833,17.827A17.85,17.85,0,0,0,346.954,209.413Zm0,23.655a5.828,5.828,0,1,1,5.833-5.828A5.836,5.836,0,0,1,346.954,233.068Z"/><path fill="#0635c9" d="M80.7,264.854a17.828,17.828,0,1,0,17.833,17.827A17.85,17.85,0,0,0,80.7,264.854Zm0,23.655a5.828,5.828,0,1,1,5.833-5.828A5.837,5.837,0,0,1,80.7,288.509Z"/><path fill="#0635c9" d="M147.264,264.854A17.828,17.828,0,1,0,165.1,282.681,17.85,17.85,0,0,0,147.264,264.854Zm0,23.655a5.828,5.828,0,1,1,5.833-5.828A5.837,5.837,0,0,1,147.264,288.509Z"/><path fill="#0635c9" d="M213.827,264.854a17.828,17.828,0,1,0,17.834,17.827A17.85,17.85,0,0,0,213.827,264.854Zm0,23.655a5.828,5.828,0,1,1,5.834-5.828A5.837,5.837,0,0,1,213.827,288.509Z"/><path fill="#0635c9" d="M280.391,264.854a17.828,17.828,0,1,0,17.833,17.827A17.85,17.85,0,0,0,280.391,264.854Zm0,23.655a5.828,5.828,0,1,1,5.833-5.828A5.837,5.837,0,0,1,280.391,288.509Z"/><path fill="#0635c9" d="M346.954,264.854a17.828,17.828,0,1,0,17.833,17.827A17.85,17.85,0,0,0,346.954,264.854Zm0,23.655a5.828,5.828,0,1,1,5.833-5.828A5.836,5.836,0,0,1,346.954,288.509Z"/><path fill="#0635c9" d="M80.7,320.3a17.828,17.828,0,1,0,17.833,17.827A17.85,17.85,0,0,0,80.7,320.3Zm0,23.655a5.828,5.828,0,1,1,5.833-5.828A5.838,5.838,0,0,1,80.7,343.95Z"/><path fill="#0635c9" d="M147.264,320.3A17.828,17.828,0,1,0,165.1,338.122,17.85,17.85,0,0,0,147.264,320.3Zm0,23.655a5.828,5.828,0,1,1,5.833-5.828A5.838,5.838,0,0,1,147.264,343.95Z"/><path fill="#0635c9" d="M213.827,320.3a17.828,17.828,0,1,0,17.834,17.827A17.85,17.85,0,0,0,213.827,320.3Zm0,23.655a5.828,5.828,0,1,1,5.834-5.828A5.838,5.838,0,0,1,213.827,343.95Z"/><path fill="#0635c9" d="M50,145.51a6,6,0,0,0-12,0v3.076a6,6,0,0,0,12,0Z"/><path fill="#0635c9" d="M44,167.729a6,6,0,0,0-6,6V320.708a6,6,0,0,0,12,0V173.729A6,6,0,0,0,44,167.729Z"/><path fill="#1ae5be" d="M477.264,404.449,472,392.593l.473-13.994a5.846,5.846,0,0,0-3.93-5.457l-71.428-26.2a6,6,0,0,0-4.14.058l-71.429,26.259a6,6,0,0,0-3.929,5.575,6.1,6.1,0,0,0,3.932,5.648L341,392.011v40.08a5.9,5.9,0,0,0,3.8,5.622,143.559,143.559,0,0,0,100.48,0A5.84,5.84,0,0,0,449,432.091v-40.08l11-4.346v4.954l-4.717,11.563A30.787,30.787,0,0,0,453,416.437V433.1a5.931,5.931,0,0,0,6.017,5.9h14.6c3.314,0,6.387-2.588,6.387-5.9V416.214A31.5,31.5,0,0,0,477.264,404.449ZM437,427.854a130.6,130.6,0,0,1-84,0v-1.727a143.608,143.608,0,0,0,42,6.34,138.738,138.738,0,0,0,42-6.34Zm0-14.332a130.6,130.6,0,0,1-84,0v-16.84l39.977,15.6a5.707,5.707,0,0,0,2.122.409,5.078,5.078,0,0,0,2-.409l39.9-15.6Zm-41.955-13.266-54.476-21.2,54.476-20.027,54.476,20.027ZM468,427h-3V416.437a19.275,19.275,0,0,1,1.543-7.044A19.281,19.281,0,0,1,468,416.214Z"/><path fill="#1ae5be" d="M398.615,294.388A102.317,102.317,0,1,0,501,396.706,102.468,102.468,0,0,0,398.615,294.388Zm0,192.634A90.317,90.317,0,1,1,489,396.706,90.453,90.453,0,0,1,398.615,487.022Z"/></svg>