<svg xmlns="http://www.w3.org/2000/svg" xmlns:xlink="http://www.w3.org/1999/xlink" viewBox="0 0 64 64" width="128px" height="128px"><defs><linearGradient id="Fn4aaS86K2h02SBRdTigva" x1="2" x2="62" y1="29" y2="29" gradientUnits="userSpaceOnUse"><stop offset="0" stop-color="#e435d2"/><stop offset="1" stop-color="#312fb4"/></linearGradient><linearGradient id="Fn4aaS86K2h02SBRdTigvb" x2="62" y1="56" y2="56" xlink:href="#Fn4aaS86K2h02SBRdTigva"/><linearGradient id="Fn4aaS86K2h02SBRdTigvc" x2="62" y1="32" y2="32" xlink:href="#Fn4aaS86K2h02SBRdTigva"/><linearGradient id="Fn4aaS86K2h02SBRdTigvd" x2="62" y1="3" y2="3" xlink:href="#Fn4aaS86K2h02SBRdTigva"/><linearGradient id="Fn4aaS86K2h02SBRdTigve" x2="62" y1="13" y2="13" xlink:href="#Fn4aaS86K2h02SBRdTigva"/><linearGradient id="Fn4aaS86K2h02SBRdTigvf" x2="62" y1="17" y2="17" xlink:href="#Fn4aaS86K2h02SBRdTigva"/><linearGradient id="Fn4aaS86K2h02SBRdTigvg" x2="62" y1="21" y2="21" xlink:href="#Fn4aaS86K2h02SBRdTigva"/><linearGradient id="Fn4aaS86K2h02SBRdTigvh" x2="62" y1="25" y2="25" xlink:href="#Fn4aaS86K2h02SBRdTigva"/><linearGradient id="Fn4aaS86K2h02SBRdTigvi" x2="62" y1="33" y2="33" xlink:href="#Fn4aaS86K2h02SBRdTigva"/><linearGradient id="Fn4aaS86K2h02SBRdTigvj" x2="62" y1="37" y2="37" xlink:href="#Fn4aaS86K2h02SBRdTigva"/><linearGradient id="Fn4aaS86K2h02SBRdTigvk" x2="62" y1="44" y2="44" xlink:href="#Fn4aaS86K2h02SBRdTigva"/><linearGradient id="Fn4aaS86K2h02SBRdTigvl" x2="62" y1="32.018" y2="32.018" xlink:href="#Fn4aaS86K2h02SBRdTigva"/><linearGradient id="Fn4aaS86K2h02SBRdTigvm" x2="62" y1="18.319" y2="18.319" xlink:href="#Fn4aaS86K2h02SBRdTigva"/></defs><path fill="url(#Fn4aaS86K2h02SBRdTigva)" d="M7,6A1,1,0,0,0,6,7V51a1,1,0,0,0,1,1H43a1,1,0,0,0,1-1V7a1,1,0,0,0-1-1H31a1,1,0,0,0-1,1,1.0006,1.0006,0,0,1-1,1H21V7a1,1,0,0,0-1-1H7ZM19.3359,23.7471A.9988.9988,0,0,0,20,24a.9858.9858,0,0,0,.4092-.0879A1,1,0,0,0,21,23V10h8a3.0062,3.0062,0,0,0,2.8291-2H42V50H8V8h2V23a1,1,0,0,0,1.6641.7471L15.5,20.3379ZM19,8V20.7734l-2.8359-2.52a.9984.9984,0,0,0-1.3282,0L12,20.7734V8Z"/><path fill="url(#Fn4aaS86K2h02SBRdTigvb)" d="M22,56a3,3,0,1,0,3-3A3.0033,3.0033,0,0,0,22,56Zm4,0a1,1,0,1,1-1-1A1.0006,1.0006,0,0,1,26,56Z"/><path fill="url(#Fn4aaS86K2h02SBRdTigvc)" d="M43,2H25a1,1,0,0,0,0,2H43a3.0033,3.0033,0,0,1,3,3V57a3.0033,3.0033,0,0,1-3,3H7a3.0033,3.0033,0,0,1-3-3V7A3.0033,3.0033,0,0,1,7,4h9.7656a1,1,0,0,0,0-2H7A5.0059,5.0059,0,0,0,2,7V57a5.0059,5.0059,0,0,0,5,5H43a5.0059,5.0059,0,0,0,5-5V7A5.0059,5.0059,0,0,0,43,2Z"/><path fill="url(#Fn4aaS86K2h02SBRdTigvd)" d="M20.0215,4h1.042a1,1,0,0,0,0-2h-1.042a1,1,0,0,0,0,2Z"/><path fill="url(#Fn4aaS86K2h02SBRdTigve)" d="M29.8506,14H39a1,1,0,0,0,0-2H29.8506a1,1,0,0,0,0,2Z"/><path fill="url(#Fn4aaS86K2h02SBRdTigve)" d="M24,14h3a1,1,0,0,0,0-2H24a1,1,0,0,0,0,2Z"/><path fill="url(#Fn4aaS86K2h02SBRdTigvf)" d="M24,18H39a1,1,0,0,0,0-2H24a1,1,0,0,0,0,2Z"/><path fill="url(#Fn4aaS86K2h02SBRdTigvg)" d="M24,22H39a1,1,0,0,0,0-2H24a1,1,0,0,0,0,2Z"/><path fill="url(#Fn4aaS86K2h02SBRdTigvh)" d="M24,26H39a1,1,0,0,0,0-2H24a1,1,0,0,0,0,2Z"/><path fill="url(#Fn4aaS86K2h02SBRdTigva)" d="M39,28H32a1,1,0,0,0,0,2h7a1,1,0,0,0,0-2Z"/><path fill="url(#Fn4aaS86K2h02SBRdTigva)" d="M10,29a1,1,0,0,0,1,1H28.1494a1,1,0,0,0,0-2H11A1,1,0,0,0,10,29Z"/><path fill="url(#Fn4aaS86K2h02SBRdTigvi)" d="M39,32H18.0215a1,1,0,0,0,0,2H39a1,1,0,0,0,0-2Z"/><path fill="url(#Fn4aaS86K2h02SBRdTigvi)" d="M11,34h4a1,1,0,0,0,0-2H11a1,1,0,0,0,0,2Z"/><path fill="url(#Fn4aaS86K2h02SBRdTigvj)" d="M39,36H11a1,1,0,0,0,0,2H39a1,1,0,0,0,0-2Z"/><path fill="url(#Fn4aaS86K2h02SBRdTigvk)" d="M37,40H13a3.0033,3.0033,0,0,0-3,3v2a3.0033,3.0033,0,0,0,3,3H37a3.0033,3.0033,0,0,0,3-3V43A3.0033,3.0033,0,0,0,37,40Zm1,5a1.0006,1.0006,0,0,1-1,1H13a1.0006,1.0006,0,0,1-1-1V43a1.0006,1.0006,0,0,1,1-1H37a1.0006,1.0006,0,0,1,1,1Z"/><path fill="url(#Fn4aaS86K2h02SBRdTigvl)" d="M60.9309,12.657c-.0106-.0287-.021-.0556-.034-.083-.0109-.0229-.0162-.0479-.0287-.07l-4-7a1.04,1.04,0,0,0-1.7364,0l-4,7c-.0125.0222-.0179.0472-.0288.07-.013.0272-.0232.054-.0338.0825A.9938.9938,0,0,0,51,13V54a5,5,0,0,0,10,0V13A.9921.9921,0,0,0,60.9309,12.657ZM56,21.7656a1,1,0,0,0-1,1V50H53V14h6V50H57V22.7656A1,1,0,0,0,56,21.7656Zm0-13.75L58.2768,12H53.7232ZM56,57a3.0033,3.0033,0,0,1-3-3V52h6v2A3.0033,3.0033,0,0,1,56,57Z"/><path fill="url(#Fn4aaS86K2h02SBRdTigvm)" d="M57,18a1,1,0,0,0-2,0v.6387a1,1,0,0,0,2,0Z"/></svg>