<svg xmlns="http://www.w3.org/2000/svg" xmlns:xlink="http://www.w3.org/1999/xlink" viewBox="0 0 64 64" width="128px" height="128px"><defs><linearGradient id="cw1z6uqZGZQqeT0FhmeRea" x1="2" x2="62" y1="19.925" y2="19.925" gradientUnits="userSpaceOnUse"><stop offset="0" stop-color="#e435d2"/><stop offset="1" stop-color="#312fb4"/></linearGradient><linearGradient id="cw1z6uqZGZQqeT0FhmeReb" x2="62" y1="3" y2="3" xlink:href="#cw1z6uqZGZQqeT0FhmeRea"/><linearGradient id="cw1z6uqZGZQqeT0FhmeRec" x2="62" y1="32" y2="32" xlink:href="#cw1z6uqZGZQqeT0FhmeRea"/><linearGradient id="cw1z6uqZGZQqeT0FhmeRed" x2="62" y1="22" y2="22" xlink:href="#cw1z6uqZGZQqeT0FhmeRea"/></defs><path fill="url(#cw1z6uqZGZQqeT0FhmeRea)" d="M24,4H55a3.0033,3.0033,0,0,1,3,3V36.85a1,1,0,0,0,2,0V7a5.0059,5.0059,0,0,0-5-5H24a1,1,0,0,0,0,2Z"/><path fill="url(#cw1z6uqZGZQqeT0FhmeReb)" d="M19,4h1.9854a1,1,0,0,0,0-2H19a1,1,0,0,0,0,2Z"/><path fill="url(#cw1z6uqZGZQqeT0FhmeRec)" d="M56.9688,46.9272A6.998,6.998,0,1,0,45.2948,40h-6.59a6.97,6.97,0,0,0-.9689-2h6.6045a1,1,0,0,0,0-2H35.957a.969.969,0,0,0-.2779.0561,6.937,6.937,0,0,0-7.3689.0065A.9782.9782,0,0,0,28,36H20.0215a1,1,0,0,0,0,2h6.2423a6.9681,6.9681,0,0,0-.969,2h-6.59A6.985,6.985,0,0,0,10,35.2949V8H54V32.8086a1,1,0,0,0,2,0V7a1,1,0,0,0-1-1H9A1,1,0,0,0,8,7V35.936a.974.974,0,0,0,.0575.2848A7.0579,7.0579,0,0,0,6.2116,38.07,2.9771,2.9771,0,0,1,6,37V7A3.0033,3.0033,0,0,1,9,4h5.915a1,1,0,0,0,0-2H9A5.0059,5.0059,0,0,0,4,7V37a4.98,4.98,0,0,0,1.2259,3.2673,6.9354,6.9354,0,0,0,1.8054,6.66A8.97,8.97,0,0,0,2,55v6a1,1,0,0,0,1,1H21a1,1,0,0,0,1-1,1,1,0,0,0,1,1H41a1,1,0,0,0,1-1,1,1,0,0,0,1,1H61a1,1,0,0,0,1-1V55A8.97,8.97,0,0,0,56.9688,46.9272ZM20,60H4V55a6.9776,6.9776,0,0,1,5.3223-6.7876,1,1,0,0,0,.248-1.8447,5,5,0,1,1,4.8594,0,1,1,0,0,0,.248,1.8447A6.9776,6.9776,0,0,1,20,55Zm2-5a8.97,8.97,0,0,0-5.0312-8.0728A7.0041,7.0041,0,0,0,19,42h6a7.0038,7.0038,0,0,0,2.0313,4.9272A8.97,8.97,0,0,0,22,55Zm18,5H24V55a6.9776,6.9776,0,0,1,5.3223-6.7876,1,1,0,0,0,.248-1.8447,5,5,0,1,1,4.8594,0,1,1,0,0,0,.248,1.8447A6.9776,6.9776,0,0,1,40,55Zm2-5a8.97,8.97,0,0,0-5.0312-8.0728A7.0041,7.0041,0,0,0,39,42h6a7.0038,7.0038,0,0,0,2.0313,4.9272A8.97,8.97,0,0,0,42,55Zm18,5H44V55a6.9776,6.9776,0,0,1,5.3223-6.7876,1,1,0,0,0,.248-1.8447,5,5,0,1,1,4.8594,0,1,1,0,0,0,.248,1.8447A6.9776,6.9776,0,0,1,60,55Z"/><path fill="url(#cw1z6uqZGZQqeT0FhmeRed)" d="M27.4961,13.1318A1,1,0,0,0,26,14V30a1,1,0,0,0,1.4961.8682l14-8a1,1,0,0,0,0-1.7364ZM28,28.2769V15.7231L38.9844,22Z"/></svg>