<svg xmlns="http://www.w3.org/2000/svg" xmlns:xlink="http://www.w3.org/1999/xlink" viewBox="0 0 64 64" width="128px" height="128px"><defs><linearGradient id="AyJJoXC2zQXWq0LhOalMla" x1="24.25" x2="27.25" y1="3" y2="3" gradientUnits="userSpaceOnUse"><stop offset="0" stop-color="#e435d2"/><stop offset="1" stop-color="#312fb4"/></linearGradient><linearGradient id="AyJJoXC2zQXWq0LhOalMlb" x1="8" x2="56" y1="16" y2="16" xlink:href="#AyJJoXC2zQXWq0LhOalMla"/><linearGradient id="AyJJoXC2zQXWq0LhOalMlc" x1="12" x2="26" y1="14" y2="14" xlink:href="#AyJJoXC2zQXWq0LhOalMla"/><linearGradient id="AyJJoXC2zQXWq0LhOalMld" x1="45.958" x2="52" y1="9" y2="9" xlink:href="#AyJJoXC2zQXWq0LhOalMla"/><linearGradient id="AyJJoXC2zQXWq0LhOalMle" x1="29" x2="43.894" y1="9" y2="9" xlink:href="#AyJJoXC2zQXWq0LhOalMla"/><linearGradient id="AyJJoXC2zQXWq0LhOalMlf" x1="29" x2="52" y1="14" y2="14" xlink:href="#AyJJoXC2zQXWq0LhOalMla"/><linearGradient id="AyJJoXC2zQXWq0LhOalMlg" x1="29" x2="46" y1="19" y2="19" xlink:href="#AyJJoXC2zQXWq0LhOalMla"/><linearGradient id="AyJJoXC2zQXWq0LhOalMlh" x1="8" x2="56" y1="48" y2="48" xlink:href="#AyJJoXC2zQXWq0LhOalMla"/><linearGradient id="AyJJoXC2zQXWq0LhOalMli" x1="12" x2="18.043" y1="41" y2="41" xlink:href="#AyJJoXC2zQXWq0LhOalMla"/><linearGradient id="AyJJoXC2zQXWq0LhOalMlj" x1="20.106" x2="35" y1="41" y2="41" xlink:href="#AyJJoXC2zQXWq0LhOalMla"/><linearGradient id="AyJJoXC2zQXWq0LhOalMlk" x1="12" x2="35" y1="46" y2="46" xlink:href="#AyJJoXC2zQXWq0LhOalMla"/><linearGradient id="AyJJoXC2zQXWq0LhOalMll" x1="18" x2="35" y1="51" y2="51" xlink:href="#AyJJoXC2zQXWq0LhOalMla"/><linearGradient id="AyJJoXC2zQXWq0LhOalMlm" x1="38" x2="52" y1="46.023" y2="46.023" xlink:href="#AyJJoXC2zQXWq0LhOalMla"/><linearGradient id="AyJJoXC2zQXWq0LhOalMln" x1="8" x2="56" xlink:href="#AyJJoXC2zQXWq0LhOalMla"/><linearGradient id="AyJJoXC2zQXWq0LhOalMlo" x1="8" x2="56" y1="14" y2="14" xlink:href="#AyJJoXC2zQXWq0LhOalMla"/><linearGradient id="AyJJoXC2zQXWq0LhOalMlp" x1="8" x2="56" y1="9" y2="9" xlink:href="#AyJJoXC2zQXWq0LhOalMla"/><linearGradient id="AyJJoXC2zQXWq0LhOalMlq" x1="8" x2="56" y1="19" y2="19" xlink:href="#AyJJoXC2zQXWq0LhOalMla"/><linearGradient id="AyJJoXC2zQXWq0LhOalMlr" x1="8" x2="56" y1="41" y2="41" xlink:href="#AyJJoXC2zQXWq0LhOalMla"/><linearGradient id="AyJJoXC2zQXWq0LhOalMls" x1="8" x2="56" y1="46" y2="46" xlink:href="#AyJJoXC2zQXWq0LhOalMla"/><linearGradient id="AyJJoXC2zQXWq0LhOalMlt" x1="8" x2="56" y1="51" y2="51" xlink:href="#AyJJoXC2zQXWq0LhOalMla"/><linearGradient id="AyJJoXC2zQXWq0LhOalMlu" x1="8" x2="56" y1="46.023" y2="46.023" xlink:href="#AyJJoXC2zQXWq0LhOalMla"/></defs><path fill="url(#AyJJoXC2zQXWq0LhOalMla)" d="M25.25,4h1a1,1,0,0,0,0-2h-1a1,1,0,0,0,0,2Z"/><path fill="url(#AyJJoXC2zQXWq0LhOalMlb)" d="M51,2H29.1914a1,1,0,0,0,0,2H51a3.0033,3.0033,0,0,1,3,3V23a1.0013,1.0013,0,0,1-1,1H16a.9994.9994,0,0,0-.4961.1318L10,27.2769V7a3.0033,3.0033,0,0,1,3-3h8.1064a1,1,0,0,0,0-2H13A5.0059,5.0059,0,0,0,8,7V29a1,1,0,0,0,1.4961.8682L16.2656,26H53a3.0033,3.0033,0,0,0,3-3V7A5.0059,5.0059,0,0,0,51,2Z"/><path fill="url(#AyJJoXC2zQXWq0LhOalMlc)" d="M12,14a6.9866,6.9866,0,0,0,11.1843,5.5984L24.293,20.707a1,1,0,0,0,1.414-1.414l-1.1086-1.1087A6.9955,6.9955,0,1,0,12,14Zm12,0a4.9663,4.9663,0,0,1-.833,2.7529l-3.46-3.46a1,1,0,0,0-1.414,1.414l3.46,3.46A4.9955,4.9955,0,1,1,24,14Z"/><path fill="url(#AyJJoXC2zQXWq0LhOalMld)" d="M51,10a1,1,0,0,0,0-2H46.9575a1,1,0,0,0,0,2Z"/><path fill="url(#AyJJoXC2zQXWq0LhOalMle)" d="M30,10H42.8936a1,1,0,0,0,0-2H30a1,1,0,0,0,0,2Z"/><path fill="url(#AyJJoXC2zQXWq0LhOalMlf)" d="M30,15H51a1,1,0,0,0,0-2H30a1,1,0,0,0,0,2Z"/><path fill="url(#AyJJoXC2zQXWq0LhOalMlg)" d="M30,20H45a1,1,0,0,0,0-2H30a1,1,0,0,0,0,2Z"/><path fill="url(#AyJJoXC2zQXWq0LhOalMlh)" d="M51,34H13a5.0059,5.0059,0,0,0-5,5V55a3.0033,3.0033,0,0,0,3,3H47.7344l6.77,3.8682A1,1,0,0,0,56,61V39A5.0059,5.0059,0,0,0,51,34Zm3,25.2769-5.5039-3.1451A.9994.9994,0,0,0,48,56H11a1.0013,1.0013,0,0,1-1-1V39a3.0033,3.0033,0,0,1,3-3H51a3.0033,3.0033,0,0,1,3,3Z"/><path fill="url(#AyJJoXC2zQXWq0LhOalMli)" d="M13,42h4.0425a1,1,0,1,0,0-2H13a1,1,0,0,0,0,2Z"/><path fill="url(#AyJJoXC2zQXWq0LhOalMlj)" d="M34,40H21.1064a1,1,0,0,0,0,2H34a1,1,0,0,0,0-2Z"/><path fill="url(#AyJJoXC2zQXWq0LhOalMlk)" d="M34,45H13a1,1,0,0,0,0,2H34a1,1,0,0,0,0-2Z"/><path fill="url(#AyJJoXC2zQXWq0LhOalMll)" d="M34,50H19a1,1,0,0,0,0,2H34a1,1,0,0,0,0-2Z"/><path fill="url(#AyJJoXC2zQXWq0LhOalMlm)" d="M45.8945,39.5527a1.0412,1.0412,0,0,0-1.789,0l-6,12a1,1,0,0,0,1.789.8946L41.6181,49h6.7638l1.7236,3.4473a1,1,0,1,0,1.789-.8946ZM42.618,47,45,42.2358,47.382,47Z"/><path fill="url(#AyJJoXC2zQXWq0LhOalMln)" d="M25.25,4h1a1,1,0,0,0,0-2h-1a1,1,0,0,0,0,2Z"/><path fill="url(#AyJJoXC2zQXWq0LhOalMlb)" d="M51,2H29.1914a1,1,0,0,0,0,2H51a3.0033,3.0033,0,0,1,3,3V23a1.0013,1.0013,0,0,1-1,1H16a.9994.9994,0,0,0-.4961.1318L10,27.2769V7a3.0033,3.0033,0,0,1,3-3h8.1064a1,1,0,0,0,0-2H13A5.0059,5.0059,0,0,0,8,7V29a1,1,0,0,0,1.4961.8682L16.2656,26H53a3.0033,3.0033,0,0,0,3-3V7A5.0059,5.0059,0,0,0,51,2Z"/><path fill="url(#AyJJoXC2zQXWq0LhOalMlo)" d="M12,14a6.9866,6.9866,0,0,0,11.1843,5.5984L24.293,20.707a1,1,0,0,0,1.414-1.414l-1.1086-1.1087A6.9955,6.9955,0,1,0,12,14Zm12,0a4.9663,4.9663,0,0,1-.833,2.7529l-3.46-3.46a1,1,0,0,0-1.414,1.414l3.46,3.46A4.9955,4.9955,0,1,1,24,14Z"/><path fill="url(#AyJJoXC2zQXWq0LhOalMlp)" d="M51,10a1,1,0,0,0,0-2H46.9575a1,1,0,0,0,0,2Z"/><path fill="url(#AyJJoXC2zQXWq0LhOalMlp)" d="M30,10H42.8936a1,1,0,0,0,0-2H30a1,1,0,0,0,0,2Z"/><path fill="url(#AyJJoXC2zQXWq0LhOalMlo)" d="M30,15H51a1,1,0,0,0,0-2H30a1,1,0,0,0,0,2Z"/><path fill="url(#AyJJoXC2zQXWq0LhOalMlq)" d="M30,20H45a1,1,0,0,0,0-2H30a1,1,0,0,0,0,2Z"/><path fill="url(#AyJJoXC2zQXWq0LhOalMlh)" d="M51,34H13a5.0059,5.0059,0,0,0-5,5V55a3.0033,3.0033,0,0,0,3,3H47.7344l6.77,3.8682A1,1,0,0,0,56,61V39A5.0059,5.0059,0,0,0,51,34Zm3,25.2769-5.5039-3.1451A.9994.9994,0,0,0,48,56H11a1.0013,1.0013,0,0,1-1-1V39a3.0033,3.0033,0,0,1,3-3H51a3.0033,3.0033,0,0,1,3,3Z"/><path fill="url(#AyJJoXC2zQXWq0LhOalMlr)" d="M13,42h4.0425a1,1,0,1,0,0-2H13a1,1,0,0,0,0,2Z"/><path fill="url(#AyJJoXC2zQXWq0LhOalMlr)" d="M34,40H21.1064a1,1,0,0,0,0,2H34a1,1,0,0,0,0-2Z"/><path fill="url(#AyJJoXC2zQXWq0LhOalMls)" d="M34,45H13a1,1,0,0,0,0,2H34a1,1,0,0,0,0-2Z"/><path fill="url(#AyJJoXC2zQXWq0LhOalMlt)" d="M34,50H19a1,1,0,0,0,0,2H34a1,1,0,0,0,0-2Z"/><path fill="url(#AyJJoXC2zQXWq0LhOalMlu)" d="M45.8945,39.5527a1.0412,1.0412,0,0,0-1.789,0l-6,12a1,1,0,0,0,1.789.8946L41.6181,49h6.7638l1.7236,3.4473a1,1,0,1,0,1.789-.8946ZM42.618,47,45,42.2358,47.382,47Z"/></svg>